<svg width="91" height="24" viewBox="0 0 91 24" fill="none" xmlns="http://www.w3.org/2000/svg">
<path fill-rule="evenodd" clip-rule="evenodd" d="M12.7423 1.19543C12.3267 0.628994 10.3242 1.81221 10.2235 1.84995C10.1227 1.88775 6.91277 3.93144 6.0088 5.2863C5.25614 6.41434 5.90846 6.48957 6.53331 6.40652C7.33118 6.30054 9.75749 5.00939 10.0471 4.95899C10.3368 4.90865 11.0421 4.80796 11.2058 5.22336C11.3696 5.63871 10.6265 6.36878 10.6265 6.36878C10.6265 6.36878 6.8608 8.11843 6.82298 8.13097C6.78522 8.14357 4.14039 10.0946 3.62406 11.0009C3.10768 11.9072 2.22608 12.7127 2.18827 14.1099C2.32076 15.2908 3.55192 15.1934 4.19076 15.0666C4.8296 14.9398 6.38219 14.1729 7.25123 13.5813C8.12021 12.9897 10.0346 11.4666 10.0346 11.4666L12.7327 9.14757L13.1201 9.76733C13.1201 9.76733 10.8259 13.2597 6.41023 15.7966C5.98369 16.043 3.08247 17.5588 1.26891 16.4386C-0.544702 15.3183 -0.292789 12.7505 1.2563 10.9505C2.80539 9.15055 5.82804 7.50165 5.82804 7.50165C5.82804 7.50165 6.24368 7.28767 6.28144 7.24988C6.31921 7.21213 3.92629 8.08063 4.20337 5.97857C4.48044 3.87652 9.53681 0.765679 10.3368 0.440217C11.1368 0.114704 12.5786 -0.52902 13.3342 0.830422C14.0899 2.18981 12.7675 4.36741 12.1126 3.87652C11.4979 3.41576 13.158 1.76186 12.7423 1.19543Z" fill="#656B6B"/>
<path fill-rule="evenodd" clip-rule="evenodd" d="M13.1524 12.5702C13.1524 12.5702 11.7063 13.6521 12.7989 11.1431C13.3613 10.6596 14.5824 9.64678 14.5824 9.64678C14.5824 9.64678 15.5465 8.72603 15.9964 9.5087C16.4463 10.2913 16.1892 11.8797 16.1892 11.8797C16.1892 11.8797 15.916 12.5702 16.4945 11.9257C17.073 11.2811 19.692 8.12751 20.6882 9.57771C20.4427 12.1283 20.7685 13.56 20.7685 13.8132C20.7685 13.8132 21.0256 15.5397 21.6201 14.7801C22.2146 14.0204 23.8054 11.9947 23.8054 11.9947C23.8054 11.9947 24.2874 11.2351 24.2552 12.1098C24.2231 12.9845 24.1588 13.0536 23.9982 13.3759C23.8375 13.6982 21.8772 16.0691 21.8772 16.0691C21.8772 16.0691 21.0096 17.7495 19.8045 16.0231C19.0332 14.1815 19.2582 11.3732 19.2582 11.3732C19.2582 11.3732 19.3224 10.8208 18.3905 11.6495C17.4586 12.4781 13.8915 16.8518 13.8915 16.8518C13.8915 16.8518 12.6061 15.2174 13.5219 13.8132C14.4379 12.4091 14.7431 11.6495 14.7913 11.4883C14.8396 11.3272 14.8877 10.9359 14.6789 11.12C14.47 11.3042 13.1524 12.5702 13.1524 12.5702Z" fill="#656B6B"/>
<path d="M32.5889 12.3249C32.5906 12.3219 32.5896 12.323 32.5859 12.3275C32.5868 12.3276 32.5878 12.3268 32.5889 12.3249Z" fill="#656B6B"/>
<path d="M30.2513 10.8262C30.2505 10.827 30.2498 10.8277 30.249 10.8285C30.2489 10.8291 30.2496 10.8284 30.2513 10.8262Z" fill="#656B6B"/>
<path d="M25.9396 12.7096C26.4615 10.7294 29.1112 10.0208 29.1622 10.4576C29.1893 10.5197 28.8319 10.7785 28.8319 10.7785L26.012 12.9477C26.012 12.9477 25.8763 13.0047 25.9396 12.7096ZM31.562 12.4304C31.562 12.4304 28.7972 15.0562 27.088 15.4735C26.3677 15.6189 25.7248 15.5143 25.757 14.3857C29.7099 11.3626 29.7727 11.3015 30.2449 10.8259C30.2487 10.8074 30.9756 9.67076 30.0996 9.34448C29.1888 9.00513 26.9856 9.15056 25.4604 11.5258C23.9352 13.9009 24.6194 15.705 25.2909 16.3489C25.8958 16.9288 27.6635 17.1972 29.5277 15.5975C31.2957 14.0804 31.4334 13.604 31.5159 13.5001C31.4826 13.4975 31.562 12.4304 31.562 12.4304Z" fill="#656B6B"/>
<path d="M35.0521 13.6571C35.0521 13.6571 36.1957 11.3812 36.2255 11.3911C36.2553 11.4011 36.315 10.8843 35.9471 11.0433C35.5792 11.2023 33.9583 12.4446 33.9583 12.4446L33.0523 13.0975C32.9018 13.1351 32.3372 13.8122 32.0737 13.6806C31.8102 13.5489 31.7913 12.7025 32.1866 12.3827C32.5818 12.063 35.499 9.89981 35.499 9.89981C35.499 9.89981 36.6658 8.73357 37.3434 9.42954C37.6455 10.2448 38.0269 11.2671 38.1248 11.6098C38.1248 11.6098 38.1447 12.057 37.747 12.385C37.3492 12.713 35.967 14.8398 35.967 14.8398C35.967 14.8398 35.6587 16.1715 37.4884 15.0783C39.3181 13.9851 40.3722 13.1105 40.3722 13.1105C40.3722 13.1105 40.9291 12.2359 40.9888 12.8024C41.0484 13.3689 40.8495 13.8161 40.7899 13.8956C40.7302 13.9752 38.7613 15.7144 38.0652 16.1318C37.3691 16.5492 35.2808 17.7816 34.6245 15.4162C34.5947 14.2534 35.0521 13.6571 35.0521 13.6273" fill="#656B6B"/>
<path fill-rule="evenodd" clip-rule="evenodd" d="M41.6489 12.9712L43.5231 11.7944C43.5231 11.7944 43.5478 12.2489 43.2765 12.7233C43.0052 13.1976 42.5686 14.5847 42.4134 14.8768C42.0898 15.4859 42.364 16.6416 42.9066 16.7523C43.4491 16.863 44.0718 16.9745 45.7919 15.594C46.5305 14.9663 47.7648 13.1074 47.7648 13.1074C47.7648 13.1074 47.3949 16.859 49.2937 16.843C51.1927 16.827 53.4614 13.6395 53.4614 13.6395C53.4614 13.6395 54.7306 11.6618 54.6566 10.475C54.5826 9.28815 53.2509 9.16309 53.2509 9.16309C53.2509 9.16309 52.3878 9.47533 52.5604 10.3361C52.7331 11.1968 52.9929 11.2852 52.401 12.4348C51.8092 13.5844 50.4775 14.9979 49.2198 15.0256C48.9239 13.986 49.9103 11.759 49.9103 11.759C49.9103 11.759 50.4775 10.7352 49.0718 9.65022C48.5293 9.53951 46.655 12.7846 46.655 12.7846C46.655 12.7846 44.9781 14.5702 44.6328 14.6396C44.2876 14.7091 43.4491 14.9461 44.6822 12.8749L45.9152 10.8037C45.9152 10.8037 45.9892 9.41774 45.57 9.20834C45.1507 8.99894 44.4109 9.59088 44.4109 9.59088C44.4109 9.59088 43.1039 10.904 42.8326 11.0504C42.5614 11.1969 41.3529 11.9569 41.3529 11.9569C41.3529 11.9569 41.131 13.3401 41.6489 12.9712Z" fill="#656B6B"/>
<path fill-rule="evenodd" clip-rule="evenodd" d="M59.2371 12.4672C59.2371 12.4672 56.8663 14.7506 55.8436 15.3076C54.8209 15.8645 55.4485 14.0266 56.1923 13.1634C56.6571 12.3279 57.889 11.3255 58.4468 11.047C59.0047 10.7685 59.5857 10.7407 60.2133 11.1305C60.3527 11.3255 59.2371 12.4672 59.2371 12.4672ZM62.6634 13.287C61.7367 15.0018 60.867 15.4129 60.867 15.4129C60.867 15.4129 60.8641 14.3051 61.236 13.1634C61.6079 12.0216 62.2122 10.9913 62.2122 10.9913C62.2122 10.9913 62.6306 9.4597 61.91 9.48758C61.1895 9.5154 60.8408 10.4065 60.8408 10.4065C60.8408 10.4065 60.5852 10.5457 60.6317 10.3508C60.6547 10.2543 60.6598 8.55583 58.3074 9.5154C55.3449 10.7238 54.2864 13.6646 54.2864 13.6646C54.2864 13.6646 53.7053 15.1683 54.449 16.4214C55.4485 18.3151 59.9576 13.0798 59.9576 13.0798C59.9576 13.0798 58.4816 18.3933 61.3618 16.4616C62.5318 15.3872 62.7332 14.8743 62.7332 14.8743C62.7332 14.8743 63.1051 14.1782 63.1283 13.7326C63.1516 13.287 62.9889 13.0086 62.6634 13.287Z" fill="#656B6B"/>
<path fill-rule="evenodd" clip-rule="evenodd" d="M77.0688 12.9382L77.6557 12.4355C77.6557 12.4355 78.3263 12.7706 77.8792 13.5248C77.4321 14.2788 75.42 15.815 75.42 15.815C75.42 15.815 73.6281 16.9872 72.5695 16.7646C70.6688 16.3651 70.5015 14.3347 71.3399 12.8545C72.1783 11.3742 73.7991 8.83249 73.7991 8.83249L71.526 9.48439C71.526 9.48439 70.5946 9.65655 70.8274 8.92577C71.0274 8.29793 71.2745 8.08787 71.2745 8.08787L74.2909 7.31682C74.2909 7.31682 74.5976 7.2402 74.9504 6.97043C75.1612 6.80931 75.3883 6.57924 75.5764 6.25548C76.0794 5.38965 76.303 4.9707 76.303 4.9707C76.303 4.9707 77.46 5.39711 77.5438 5.50885C77.6277 5.62055 76.8173 6.82155 76.8173 6.82155L80.6458 6.26293C80.6458 6.26293 80.9532 7.04499 79.9752 7.3522C78.997 7.65945 75.895 8.49736 75.895 8.49736C75.895 8.49736 73.0725 12.4075 72.7372 13.2734C72.4019 14.1392 72.0385 16.234 74.4139 14.7816C76.7893 13.3293 77.0688 12.9382 77.0688 12.9382Z" fill="#656B6B"/>
<path fill-rule="evenodd" clip-rule="evenodd" d="M69.9379 12.9382L70.5248 12.4355C70.5248 12.4355 71.1955 12.7706 70.7484 13.5248C70.3012 14.2788 68.2891 15.815 68.2891 15.815C68.2891 15.815 66.4973 16.9872 65.4387 16.7646C63.5379 16.3651 63.3707 14.3347 64.2091 12.8545C65.0474 11.3742 66.6683 8.83249 66.6683 8.83249L64.3952 9.48439C64.3952 9.48439 63.4637 9.65655 63.6965 8.92577C63.8965 8.29793 64.1437 8.08787 64.1437 8.08787L67.16 7.31682C67.16 7.31682 67.4667 7.2402 67.8196 6.97043C68.0303 6.80931 68.2575 6.57924 68.4455 6.25548C68.9486 5.38965 69.1722 4.9707 69.1722 4.9707C69.1722 4.9707 70.3292 5.39711 70.413 5.50885C70.4969 5.62055 69.6864 6.82155 69.6864 6.82155L73.515 6.26293C73.515 6.26293 73.8224 7.04499 72.8443 7.3522C71.8662 7.65945 68.7642 8.49736 68.7642 8.49736C68.7642 8.49736 65.9417 12.4075 65.6063 13.2734C65.271 14.1392 64.9077 16.234 67.2831 14.7816C69.6585 13.3293 69.9379 12.9382 69.9379 12.9382Z" fill="#656B6B"/>
<path fill-rule="evenodd" clip-rule="evenodd" d="M39.6591 22.019C39.6591 22.125 39.62 22.2154 39.5418 22.2902C39.4635 22.3649 39.3769 22.4023 39.2819 22.4023C39.1812 22.4023 39.0975 22.3649 39.0304 22.2902C38.9634 22.2154 38.9298 22.125 38.9298 22.019C38.9298 21.9127 38.9634 21.8223 39.0304 21.7476C39.0975 21.6728 39.1812 21.6355 39.2819 21.6355H39.6591V22.019ZM36.2657 20.043H35.88V22.8152H36.2657V20.043ZM36.2405 18.651H35.8548V19.2114H36.2405V18.651ZM33.5763 20.4204C33.5093 20.3458 33.4395 20.2759 33.3668 20.2111C33.2942 20.1463 33.2103 20.098 33.1154 20.0665H32.7296C32.5675 20.1138 32.4362 20.2091 32.3356 20.3526C32.2351 20.4961 32.1847 20.6583 32.1847 20.8393V22.8152H32.5704V20.8393C32.5704 20.733 32.6038 20.6426 32.6709 20.5679C32.738 20.4932 32.8218 20.4558 32.9225 20.4558C33.0119 20.4558 33.0845 20.4834 33.1405 20.5385C33.1962 20.5935 33.2522 20.6524 33.3082 20.7155L33.5763 20.4204ZM29.5459 22.019C29.5459 22.125 29.5067 22.2154 29.4285 22.2902C29.3502 22.3649 29.2636 22.4023 29.1685 22.4023C29.068 22.4023 28.9842 22.3649 28.9171 22.2902C28.85 22.2154 28.8164 22.125 28.8164 22.019C28.8164 21.9127 28.85 21.8223 28.9171 21.7476C28.9842 21.6728 29.068 21.6355 29.1685 21.6355H29.5459V22.019ZM29.5542 22.8152H29.9063V20.8393C29.9063 20.7291 29.8868 20.6259 29.8476 20.5296C29.8086 20.4332 29.7554 20.3487 29.6883 20.2759C29.6213 20.2032 29.543 20.1463 29.4537 20.1049C29.3642 20.0637 29.2692 20.043 29.1685 20.043C29.0177 20.043 28.8947 20.0793 28.7997 20.1521C28.7047 20.2248 28.6097 20.3144 28.5147 20.4204L28.783 20.7155C28.8388 20.6524 28.8947 20.5935 28.9507 20.5385C29.0065 20.4834 29.0791 20.4558 29.1685 20.4558C29.2636 20.4558 29.346 20.4932 29.4159 20.5679C29.4858 20.6426 29.5207 20.733 29.5207 20.8393V21.2227H29.1685C29.068 21.2227 28.9729 21.2432 28.8836 21.2845C28.794 21.3259 28.7159 21.3829 28.6487 21.4557C28.5817 21.5284 28.5286 21.6129 28.4894 21.7092C28.4504 21.8055 28.4309 21.9088 28.4309 22.019C28.4309 22.129 28.4504 22.2322 28.4894 22.3285C28.5286 22.4249 28.5817 22.5095 28.6487 22.5823C28.7159 22.6549 28.794 22.7119 28.8836 22.7532C28.9729 22.7945 29.068 22.8152 29.1685 22.8152C29.3028 22.8152 29.4313 22.7759 29.5542 22.6972V22.8152ZM26.1525 22.8152V20.8393C26.1525 20.7291 26.133 20.6259 26.0938 20.5296C26.0547 20.4332 26.0016 20.3487 25.9346 20.2759C25.8675 20.2032 25.7893 20.1463 25.6998 20.1049C25.6103 20.0637 25.5154 20.043 25.4147 20.043H25.0626V18.5684H24.677V22.8152H25.0626V20.4558H25.4147C25.5154 20.4558 25.5991 20.4932 25.6663 20.5679C25.7334 20.6426 25.7669 20.733 25.7669 20.8393V22.8152H26.1525ZM22.3986 22.8152V20.8156C22.3986 20.6348 22.3496 20.4726 22.2519 20.329C22.154 20.1854 22.0212 20.0922 21.8535 20.0489H21.4764C21.3143 20.0922 21.1829 20.1854 21.0824 20.329C20.9816 20.4726 20.9315 20.6348 20.9315 20.8156V22.8152H21.3087V20.8156C21.3087 20.7095 21.3437 20.6191 21.4135 20.5444C21.4833 20.4696 21.5686 20.4322 21.6692 20.4322C21.7642 20.4322 21.8466 20.4696 21.9165 20.5444C21.9863 20.6191 22.0212 20.7095 22.0212 20.8156V22.8152H22.3986ZM18.2674 21.2227H17.5632V20.8393C17.5632 20.733 17.5982 20.6426 17.668 20.5679C17.7379 20.4932 17.8203 20.4558 17.9153 20.4558C18.016 20.4558 18.0997 20.4932 18.1668 20.5679C18.2338 20.6426 18.2674 20.733 18.2674 20.8393V21.2227ZM18.653 21.6355V20.8393C18.653 20.7291 18.6335 20.6259 18.5944 20.5296C18.5553 20.4332 18.5022 20.3487 18.4352 20.2759C18.3681 20.2032 18.2898 20.1463 18.2004 20.1049C18.1109 20.0637 18.016 20.043 17.9153 20.043C17.8147 20.043 17.7197 20.0637 17.6303 20.1049C17.5408 20.1463 17.4627 20.2032 17.3955 20.2759C17.3285 20.3487 17.2753 20.4332 17.2362 20.5296C17.1971 20.6259 17.1775 20.7291 17.1775 20.8393V22.019C17.1775 22.129 17.1971 22.2322 17.2362 22.3285C17.2753 22.4249 17.3285 22.5095 17.3955 22.5823C17.4627 22.6549 17.5408 22.7119 17.6303 22.7532C17.7197 22.7945 17.8147 22.8152 17.9153 22.8152H18.5608V22.4023H17.9153C17.8203 22.4023 17.7379 22.3649 17.668 22.2902C17.5982 22.2154 17.5632 22.125 17.5632 22.019V21.6355H18.653ZM14.5219 20.8274V22.0366C14.5219 22.1428 14.4869 22.2332 14.4171 22.308C14.3472 22.3827 14.262 22.4201 14.1614 22.4201C14.0664 22.4201 13.9839 22.3827 13.9141 22.308C13.8443 22.2332 13.8092 22.1428 13.8092 22.0366V20.8274C13.8092 20.7213 13.8443 20.6309 13.9141 20.5561C13.9839 20.4815 14.0664 20.4441 14.1614 20.4441C14.262 20.4441 14.3472 20.4815 14.4171 20.5561C14.4869 20.6309 14.5219 20.7213 14.5219 20.8274ZM14.8991 20.8274C14.8991 20.7173 14.8795 20.6141 14.8404 20.5177C14.8013 20.4215 14.7482 20.3369 14.6811 20.2641C14.6141 20.1913 14.5358 20.1344 14.4465 20.0932C14.357 20.0518 14.262 20.0311 14.1614 20.0311C14.0608 20.0311 13.9657 20.0518 13.8763 20.0932C13.7869 20.1344 13.7087 20.1913 13.6416 20.2641C13.5745 20.3369 13.5228 20.4215 13.4866 20.5177C13.4501 20.6141 13.4321 20.7173 13.4321 20.8274V22.0366C13.4321 22.1507 13.4501 22.2548 13.4866 22.3493C13.5228 22.4436 13.5745 22.5262 13.6416 22.5969C13.7087 22.6677 13.7869 22.7227 13.8763 22.7621C13.9657 22.8014 14.0608 22.821 14.1614 22.821C14.2842 22.821 14.4045 22.7915 14.5219 22.7326V23.2045C14.5219 23.3106 14.4869 23.4011 14.4171 23.4757C14.3472 23.5505 14.262 23.5879 14.1614 23.5879C14.0774 23.5879 14.0076 23.5604 13.9518 23.5053C13.8959 23.4502 13.8372 23.3913 13.7757 23.3284L13.5075 23.6232C13.608 23.7294 13.7059 23.8189 13.8009 23.8917C13.8959 23.9643 14.0161 24.0007 14.1614 24.0007C14.262 24.0007 14.357 23.9801 14.4465 23.9388C14.5358 23.8975 14.6141 23.8405 14.6811 23.7677C14.7482 23.6951 14.8013 23.6105 14.8404 23.5142C14.8795 23.4178 14.8991 23.3145 14.8991 23.2045V20.8274ZM11.1536 22.8152V20.8156C11.1536 20.6348 11.1048 20.4726 11.0071 20.329C10.9092 20.1854 10.7764 20.0922 10.6088 20.0489H10.2316C10.0693 20.0922 9.93812 20.1854 9.83742 20.329C9.73689 20.4726 9.68656 20.6348 9.68656 20.8156V22.8152H10.0638V20.8156C10.0638 20.7095 10.0988 20.6191 10.1686 20.5444C10.2385 20.4696 10.3238 20.4322 10.4243 20.4322C10.5194 20.4322 10.6017 20.4696 10.6716 20.5444C10.7414 20.6191 10.7764 20.7095 10.7764 20.8156V22.8152H11.1536ZM7.02249 21.2227H6.31831V20.8393C6.31831 20.733 6.35314 20.6426 6.42312 20.5679C6.49294 20.4932 6.57532 20.4558 6.67035 20.4558C6.77094 20.4558 6.85481 20.4932 6.9218 20.5679C6.98895 20.6426 7.02249 20.733 7.02249 20.8393V21.2227ZM7.40813 21.6355V20.8393C7.40813 20.7291 7.38853 20.6259 7.34947 20.5296C7.31032 20.4332 7.25727 20.3487 7.19018 20.2759C7.12303 20.2032 7.04482 20.1463 6.95535 20.1049C6.86602 20.0637 6.77094 20.043 6.67035 20.043C6.56971 20.043 6.47478 20.0637 6.3853 20.1049C6.29593 20.1463 6.21761 20.2032 6.15062 20.2759C6.08353 20.3487 6.03043 20.4332 5.99127 20.5296C5.95212 20.6259 5.93262 20.7291 5.93262 20.8393V22.019C5.93262 22.129 5.95212 22.2322 5.99127 22.3285C6.03043 22.4249 6.08353 22.5095 6.15062 22.5823C6.21761 22.6549 6.29593 22.7119 6.3853 22.7532C6.47478 22.7945 6.56971 22.8152 6.67035 22.8152H7.31593V22.4023H6.67035C6.57532 22.4023 6.49294 22.3649 6.42312 22.2902C6.35314 22.2154 6.31831 22.125 6.31831 22.019V21.6355H7.40813ZM39.6675 22.8152H40.0197V20.8393C40.0197 20.7291 40.0001 20.6259 39.961 20.5296C39.9219 20.4332 39.8688 20.3487 39.8017 20.2759C39.7345 20.2032 39.6564 20.1463 39.5669 20.1049C39.4776 20.0637 39.3825 20.043 39.2819 20.043C39.131 20.043 39.008 20.0793 38.913 20.1521C38.8179 20.2248 38.723 20.3144 38.6279 20.4204L38.8962 20.7155C38.9522 20.6524 39.008 20.5935 39.0639 20.5385C39.1199 20.4834 39.1924 20.4558 39.2819 20.4558C39.3769 20.4558 39.4593 20.4932 39.5292 20.5679C39.599 20.6426 39.634 20.733 39.634 20.8393V21.2227H39.2819C39.1812 21.2227 39.0863 21.2432 38.9968 21.2845C38.9074 21.3259 38.8293 21.3829 38.7622 21.4557C38.6951 21.5284 38.642 21.6129 38.6028 21.7092C38.5637 21.8055 38.5442 21.9088 38.5442 22.019C38.5442 22.129 38.5637 22.2322 38.6028 22.3285C38.642 22.4249 38.6951 22.5095 38.7622 22.5823C38.8293 22.6549 38.9074 22.7119 38.9968 22.7532C39.0863 22.7945 39.1812 22.8152 39.2819 22.8152C39.416 22.8152 39.5447 22.7759 39.6675 22.6972V22.8152Z" fill="#656B6B"/>
<path d="M53.7765 22.1422H53.7765C54.0608 22.1422 54.2912 21.9119 54.2912 21.6278V21.6277C54.2912 21.3436 54.0608 21.1133 53.7765 21.1133H53.7765C53.4922 21.1133 53.2617 21.3436 53.2617 21.6277V21.6278C53.2617 21.9119 53.4922 22.1422 53.7765 22.1422Z" fill="#656B6B"/>
<path d="M51.3038 22.1422H51.3038C51.5881 22.1422 51.8186 21.9119 51.8186 21.6278V21.6277C51.8186 21.3436 51.5881 21.1133 51.3038 21.1133H51.3038C51.0195 21.1133 50.7891 21.3436 50.7891 21.6277V21.6278C50.7891 21.9119 51.0195 22.1422 51.3038 22.1422Z" fill="#656B6B"/>
<path d="M56.2481 22.1422H56.2483C56.5325 22.1422 56.763 21.9119 56.763 21.6278V21.6277C56.763 21.3436 56.5325 21.1133 56.2483 21.1133H56.2481C55.9639 21.1133 55.7334 21.3436 55.7334 21.6277V21.6278C55.7334 21.9119 55.9639 22.1422 56.2481 22.1422Z" fill="#656B6B"/>
<path d="M43.8878 22.1422H43.8878C44.1721 22.1422 44.4026 21.9119 44.4026 21.6278V21.6277C44.4026 21.3436 44.1721 21.1133 43.8878 21.1133H43.8878C43.6035 21.1133 43.373 21.3436 43.373 21.6277V21.6278C43.373 21.9119 43.6035 22.1422 43.8878 22.1422Z" fill="#656B6B"/>
<path d="M61.1319 22.1422C61.4162 22.1422 61.6467 21.9119 61.6467 21.6278V21.6277C61.6467 21.3436 61.4162 21.1133 61.1319 21.1133C60.8476 21.1133 60.6172 21.3436 60.6172 21.6277V21.6278C60.6172 21.9119 60.8476 22.1422 61.1319 22.1422Z" fill="#656B6B"/>
<path d="M41.4161 22.1422H41.4162C41.7005 22.1422 41.9309 21.9119 41.9309 21.6278V21.6277C41.9309 21.3436 41.7005 21.1133 41.4162 21.1133H41.4161C41.1318 21.1133 40.9014 21.3436 40.9014 21.6277V21.6278C40.9014 21.9119 41.1318 22.1422 41.4161 22.1422Z" fill="#656B6B"/>
<path d="M46.3604 22.1422H46.3605C46.6448 22.1422 46.8752 21.9119 46.8752 21.6278V21.6277C46.8752 21.3436 46.6448 21.1133 46.3605 21.1133H46.3604C46.0762 21.1133 45.8457 21.3436 45.8457 21.6277V21.6278C45.8457 21.9119 46.0762 22.1422 46.3604 22.1422Z" fill="#656B6B"/>
<path d="M48.8321 22.1422H48.8322C49.1164 22.1422 49.3469 21.9119 49.3469 21.6278V21.6277C49.3469 21.3436 49.1164 21.1133 48.8322 21.1133H48.8321C48.5478 21.1133 48.3174 21.3436 48.3174 21.6277V21.6278C48.3174 21.9119 48.5478 22.1422 48.8321 22.1422Z" fill="#656B6B"/>
<path d="M58.7198 22.1422H58.7199C59.0041 22.1422 59.2346 21.9119 59.2346 21.6278V21.6277C59.2346 21.3436 59.0041 21.1133 58.7199 21.1133H58.7198C58.4355 21.1133 58.2051 21.3436 58.2051 21.6277V21.6278C58.2051 21.9119 58.4355 22.1422 58.7198 22.1422Z" fill="#656B6B"/>
<path d="M63.6046 22.1422C63.8889 22.1422 64.1193 21.9119 64.1193 21.6278V21.6277C64.1193 21.3436 63.8889 21.1133 63.6046 21.1133C63.3203 21.1133 63.0898 21.3436 63.0898 21.6277V21.6278C63.0898 21.9119 63.3203 22.1422 63.6046 22.1422Z" fill="#656B6B"/>
<path d="M73.5821 22.1422H73.5823C73.8665 22.1422 74.097 21.9119 74.097 21.6278V21.6277C74.097 21.3436 73.8665 21.1133 73.5823 21.1133H73.5821C73.2978 21.1133 73.0674 21.3436 73.0674 21.6277V21.6278C73.0674 21.9119 73.2978 22.1422 73.5821 22.1422Z" fill="#656B6B"/>
<path d="M76.0548 22.1422H76.0549C76.3391 22.1422 76.5696 21.9119 76.5696 21.6278V21.6277C76.5696 21.3436 76.3391 21.1133 76.0549 21.1133H76.0548C75.7705 21.1133 75.54 21.3436 75.54 21.6277V21.6278C75.54 21.9119 75.7705 22.1422 76.0548 22.1422Z" fill="#656B6B"/>
<path d="M78.4669 22.1422C78.7512 22.1422 78.9816 21.9119 78.9816 21.6278V21.6277C78.9816 21.3436 78.7512 21.1133 78.4669 21.1133C78.1826 21.1133 77.9521 21.3436 77.9521 21.6277V21.6278C77.9521 21.9119 78.1826 22.1422 78.4669 22.1422Z" fill="#656B6B"/>
<path d="M80.4238 21.6277V21.6278C80.4238 21.9119 80.6543 22.1422 80.9386 22.1422C81.2228 22.1422 81.4533 21.9119 81.4533 21.6278V21.6277C81.4533 21.3436 81.2228 21.1133 80.9386 21.1133C80.6543 21.1133 80.4238 21.3436 80.4238 21.6277Z" fill="#656B6B"/>
<path d="M66.1661 22.1422H66.1662C66.4504 22.1422 66.6809 21.9119 66.6809 21.6278V21.6277C66.6809 21.3436 66.4504 21.1133 66.1662 21.1133H66.1661C65.8818 21.1133 65.6514 21.3436 65.6514 21.6277V21.6278C65.6514 21.9119 65.8818 22.1422 66.1661 22.1422Z" fill="#656B6B"/>
<path d="M68.6388 22.1422H68.6388C68.9231 22.1422 69.1535 21.9119 69.1535 21.6278V21.6277C69.1535 21.3436 68.9231 21.1133 68.6388 21.1133H68.6388C68.3545 21.1133 68.124 21.3436 68.124 21.6277V21.6278C68.124 21.9119 68.3545 22.1422 68.6388 22.1422Z" fill="#656B6B"/>
<path d="M71.1104 22.1422H71.1105C71.3948 22.1422 71.6252 21.9119 71.6252 21.6278V21.6277C71.6252 21.3436 71.3948 21.1133 71.1105 21.1133H71.1104C70.8262 21.1133 70.5957 21.3436 70.5957 21.6277V21.6278C70.5957 21.9119 70.8262 22.1422 71.1104 22.1422Z" fill="#656B6B"/>
<path d="M85.1836 16.4692C84.6782 16.3431 84.1675 16.1767 83.7071 15.9573C83.7039 15.9387 83.6981 15.9196 83.6874 15.9007C83.5609 15.6764 83.6536 15.1368 83.6478 14.8828C83.636 14.3689 83.5748 13.8545 83.4767 13.35C83.3622 12.7608 83.2622 12.1568 83.0931 11.5801C82.9885 11.2233 82.8332 10.9135 82.665 10.6005C83.6399 11.0548 84.7116 11.2984 85.7381 11.5759C85.4496 12.4961 85.2686 13.456 85.2166 14.4178C85.1823 15.0519 85.0979 15.8008 85.1836 16.4692ZM87.3 16.8148C86.8338 16.773 86.1958 16.6944 85.5241 16.5485C85.4846 16.258 85.5005 15.9585 85.5105 15.6675C85.5263 15.2037 85.5118 14.7384 85.5452 14.2754C85.6094 13.3944 85.7791 12.5059 86.0468 11.6613C86.0814 11.6711 86.1164 11.6806 86.1509 11.6906C86.3518 11.7486 86.6741 11.4348 86.8171 11.3184C86.8454 11.2954 87.3981 10.7478 87.3321 10.729C86.3369 10.442 83.315 9.45691 82.6055 9.2832C82.4966 9.34496 82.3875 9.41742 82.278 9.50309C82.2454 9.52844 81.6743 10.0317 81.7629 10.0925C81.8933 10.1818 82.0274 10.2634 82.1632 10.3412C82.1656 10.3473 82.1676 10.3532 82.1707 10.3594C82.538 11.0533 82.8033 11.6514 82.9608 12.4276C83.0869 13.0482 83.2313 13.6674 83.2885 14.2992C83.3241 14.6942 83.3242 15.0869 83.3385 15.4827C83.3418 15.5717 83.3393 15.6703 83.3454 15.7678C83.063 15.6038 82.6118 15.2397 82.6175 15.2605C82.007 14.8557 81.4472 14.3831 80.9482 13.8547C81.0254 13.9924 81.0977 14.1353 81.1624 14.2865C81.24 14.4674 81.6241 16.0618 81.5898 16.037C81.6904 16.4336 81.7685 16.8384 81.8212 17.2522C81.8349 17.256 81.8486 17.2599 81.8624 17.2637C83.0543 17.3207 84.1431 17.8255 85.2092 18.3726C85.0191 18.3804 84.8302 18.3888 84.6436 18.404C83.6015 18.488 82.7825 18.3661 81.9299 19.0338C81.8973 19.059 81.3262 19.5624 81.4149 19.6231C82.7205 20.5183 84.3313 20.7969 85.8028 21.2213C86.0038 21.2793 86.326 20.9655 86.469 20.849C86.4973 20.8261 87.05 20.2786 86.984 20.2597C85.9889 19.9726 84.9306 19.7517 83.9455 19.3623C84.0341 19.3585 84.1171 19.3545 84.1882 19.351C84.9916 19.3124 85.8077 19.2881 86.5745 18.9991C86.8301 18.9026 87.071 18.6898 87.2762 18.506C87.2913 18.4924 87.2648 17.1257 87.3 16.8148Z" fill="#656B6B"/>
<path d="M79.3752 8.39931C79.3752 8.34079 79.3764 8.28258 79.3782 8.22452H79.2527C79.2398 8.22452 79.2275 8.22313 79.2156 8.22103C79.213 8.22061 79.2105 8.2202 79.208 8.21969C79.1968 8.21732 79.186 8.21414 79.1758 8.21007C79.1741 8.2094 79.1724 8.20853 79.1708 8.20781C79.1608 8.20349 79.1513 8.1985 79.1424 8.19269C79.142 8.19243 79.1415 8.19218 79.1411 8.19187C79.1408 8.19177 79.1407 8.19156 79.1404 8.19141C78.9137 10.902 80.6604 12.7798 80.6604 12.7798C80.6604 12.7798 79.2494 10.9676 79.3752 8.39931Z" fill="#656B6B"/>
<path d="M89.7519 4.67145C87.1457 1.56632 81.8756 1.84355 79.8486 5.78041C79.7974 5.87976 79.75 5.97839 79.7051 6.07651C79.7525 6.06977 79.7971 6.07934 79.8354 6.10001C79.8487 6.09764 79.8621 6.09548 79.8754 6.09317C80.7446 4.20679 82.6523 2.89707 84.8666 2.89707C87.9 2.89707 90.3591 5.35477 90.3591 8.38652C90.3613 9.15243 89.9852 10.0508 89.4725 10.9807C87.6029 13.5408 86.8145 14.9028 86.6824 16.2048C87.0299 16.2602 87.2615 16.3157 87.2615 16.3157H87.4932C87.6091 16.0385 87.7249 14.2641 88.999 12.6561C90.2731 11.0481 92.358 7.77658 89.7519 4.67145Z" fill="#656B6B"/>
<path d="M85.9229 17.7588C86.2818 17.824 86.5999 18.4491 86.5999 18.4491L86.6226 17.8186L85.9229 17.7588Z" fill="#656B6B"/>
<path d="M86.2028 17.8808C86.1453 17.8459 86.0873 17.8127 86.0291 17.7801L86.2941 17.8159C86.3316 17.821 86.3693 17.8247 86.407 17.8286L86.429 18.0293C86.3547 17.9757 86.2791 17.9271 86.2028 17.8808ZM82.6731 19.2595C82.672 19.2578 82.6713 19.2566 82.6716 19.2568C82.6721 19.2573 82.6725 19.2579 82.6727 19.2585C82.6729 19.2588 82.673 19.2592 82.6731 19.2595ZM86.8957 18.3073L86.8637 17.5912L86.8555 17.4047L86.6518 17.3712C86.5566 17.3555 86.4612 17.3431 86.3665 17.3249L86.2241 17.2993L86.0824 17.2704C85.9877 17.2522 85.8939 17.2287 85.7998 17.2081C85.7061 17.1843 85.6121 17.163 85.5189 17.137C85.1455 17.0383 84.777 16.9192 84.4141 16.7854C84.0515 16.6506 83.694 16.5014 83.3441 16.3372C83.1692 16.2553 82.9958 16.1699 82.8253 16.0808C82.7399 16.0364 82.4767 15.8645 82.393 15.8184C82.3103 15.7725 82.0123 15.4685 81.9375 15.4229L82.1411 16.5252C82.1433 16.5264 82.145 16.5273 82.1471 16.5284L82.2055 16.8472L82.4018 16.9204L82.6897 16.9981C82.8817 17.0505 83.0734 17.104 83.2648 17.1586C83.6475 17.2678 84.0291 17.3812 84.4081 17.501C84.7869 17.6212 85.1637 17.7471 85.5329 17.8877C85.7172 17.9583 85.9 18.0323 86.076 18.1154C86.1469 18.149 86.2161 18.1847 86.2829 18.2224C86.2372 18.2363 86.1915 18.2499 86.146 18.2633C85.9879 18.3094 85.8291 18.3542 85.6694 18.3957C85.5098 18.4378 85.3495 18.4773 85.1888 18.515C85.028 18.5521 84.8668 18.5878 84.7049 18.6202C84.5428 18.6535 84.3817 18.6825 84.2173 18.7116L83.725 18.7965C83.5605 18.8247 83.3959 18.8524 83.2298 18.8839C83.1467 18.8998 83.0633 18.9167 82.9788 18.9374C82.8942 18.9589 82.8078 18.9827 82.72 19.0244C82.7121 19.0282 82.7043 19.0323 82.6964 19.0364C82.6989 19.0341 82.7012 19.0319 82.7037 19.0296C82.7037 19.0296 82.6843 19.0404 82.6557 19.0592C82.634 19.0725 82.6129 19.0871 82.5928 19.1034C82.5877 19.1077 82.5827 19.1121 82.5776 19.1165C82.5083 19.1729 82.4315 19.2527 82.4065 19.3439C82.381 19.4369 82.9292 19.6546 83.2237 19.7642C83.175 19.7448 83.12 19.7213 83.0632 19.6945C83.0985 19.7092 83.1338 19.7237 83.1692 19.7382C83.4817 19.8633 83.7976 19.9731 84.1151 20.0779C84.4327 20.1822 84.7521 20.2802 85.0734 20.3714C85.2341 20.4168 85.3952 20.4606 85.5573 20.5011C85.7193 20.5408 85.8819 20.5805 86.0471 20.6042C85.8836 20.5715 85.7239 20.5231 85.5646 20.4746C85.4055 20.4254 85.2474 20.373 85.0899 20.3189C84.7749 20.2105 84.4623 20.0954 84.1523 19.9744C83.8426 19.8531 83.5348 19.7265 83.235 19.5869C83.0861 19.5167 82.9368 19.4436 82.802 19.3601C82.7689 19.3391 82.7365 19.3173 82.7094 19.2952C82.7067 19.293 82.7044 19.2908 82.7018 19.2885C82.7086 19.283 82.7156 19.2776 82.7227 19.2724C82.7488 19.2535 82.7782 19.2383 82.8104 19.225C82.875 19.1983 82.9511 19.1807 83.029 19.1656C83.1074 19.151 83.1882 19.1391 83.2697 19.1281C83.4328 19.1064 83.5983 19.0878 83.7639 19.0687L84.2616 19.0108C84.427 18.9909 84.5955 18.9692 84.7616 18.9442C84.9284 18.9198 85.0945 18.8921 85.2604 18.8628C85.4262 18.833 85.5917 18.8014 85.7566 18.7669C85.9217 18.7331 86.0861 18.6959 86.2505 18.6572C86.4154 18.6179 86.577 18.5777 86.7447 18.5307L86.9036 18.4861L86.8957 18.3073Z" fill="#656B6B"/>
<path d="M83.2256 19.7646C83.3309 19.8067 83.4066 19.8303 83.4066 19.8303C83.4066 19.8303 83.3328 19.8046 83.2256 19.7646Z" fill="#656B6B"/>
</svg>
